<?xml version="1.0" encoding="UTF-8" standalone="no"?><!DOCTYPE svg PUBLIC "-//W3C//DTD SVG 1.1//EN" "http://www.w3.org/Graphics/SVG/1.1/DTD/svg11.dtd"><svg width="100%" height="100%" viewBox="0 0 543 517" version="1.1" xmlns="http://www.w3.org/2000/svg" xmlns:xlink="http://www.w3.org/1999/xlink" xml:space="preserve" xmlns:serif="http://www.serif.com/" style="fill-rule:evenodd;clip-rule:evenodd;stroke-linecap:round;stroke-linejoin:round;stroke-miterlimit:1.5;"><rect id="Artboard1" x="-478" y="-1486" width="1920" height="4693.93" style="fill:#fff;"/><rect id="Artboard11" serif:id="Artboard1" x="-197.823" y="-25.446" width="893.156" height="558.223" style="fill:none;"/><g id="Artboard12" serif:id="Artboard1"><path id="Grid" d="M487.049,374.987l-0.005,0.01l-72.996,-41.891l-3.658,6.378l-7.358,12.837l-4.574,7.979l-0.004,-0.003l-0.013,0.022l-28.587,-16.405c-5.248,9.156 -10.458,18.244 -15.59,27.197l-0.011,-0.006l-0.011,0.02l-28.581,-16.402c-5.295,9.237 -10.507,18.329 -15.593,27.201l-0.016,-0.009l-0.009,0.016l-28.575,-16.399c-5.356,9.342 -10.571,18.44 -15.597,27.206l-0.021,-0.012l-0.006,0.01l-28.57,-16.396c-5.446,9.498 -10.668,18.605 -15.602,27.211l-0.024,-0.014l-0.003,0.005l-22.671,-13.011l-5.855,-3.358l-0.042,-0.025c-19.044,33.213 -33.803,58.939 -40.592,70.743l-0.009,-0.005l40.578,-70.751l0.023,0.013l0.001,-0.001l5.896,3.384l13.486,7.736l9.188,5.27l15.605,-27.209l0.021,0.012l0.002,-0.005c9.621,5.519 19.17,10.996 28.574,16.391l15.602,-27.203l0.016,0.009l0.004,-0.007l0.002,-0.003c9.706,5.567 19.258,11.047 28.578,16.393l15.599,-27.198l0.01,0.006l0.009,-0.015c9.816,5.631 19.375,11.115 28.583,16.397l15.597,-27.194l0.004,0.003l0.012,-0.019c9.979,5.725 19.548,11.215 28.588,16.402l11.936,-20.813l3.195,-5.573l0.462,-0.806l0.001,0.001l0.013,-0.023c33.689,19.331 60.047,34.461 72.988,41.904Zm-17.424,26.17l-0.008,0.01l-71.172,-40.845c-5.247,9.155 -10.457,18.242 -15.589,27.195l-0.01,-0.007l-0.013,0.023l-28.581,-16.402c-5.294,9.235 -10.505,18.326 -15.591,27.197l-0.016,-0.009l-0.011,0.02l-28.575,-16.399c-5.354,9.34 -10.569,18.436 -15.594,27.201l-0.021,-0.012l-0.009,0.015l-28.57,-16.396c-5.444,9.495 -10.665,18.601 -15.599,27.205l-0.024,-0.013l-0.006,0.01l-28.567,-16.395c-18.206,31.751 -32.501,56.669 -39.669,69.136l-0.011,-0.005l39.656,-69.144l0.024,0.013l0.003,-0.004c9.62,5.518 19.167,10.995 28.57,16.389l15.602,-27.204l0.021,0.012l0.006,-0.01c9.704,5.567 19.255,11.045 28.573,16.391l15.599,-27.198l0.016,0.009l0.009,-0.016c9.814,5.631 19.371,11.113 28.577,16.395l15.597,-27.194l0.01,0.006l0.012,-0.02c9.978,5.725 19.544,11.214 28.582,16.399l15.595,-27.191l0.004,0.003l0.013,-0.022c32.206,18.479 57.702,33.114 71.167,40.857Zm31.159,-54.461l-0.005,0.013l-71.123,-40.817l-15.595,27.191l-0.001,-0.001l-0.013,0.023l-28.59,-16.407l-3.615,6.304l-7.358,12.836l-4.618,8.057l-0.005,-0.003l-0.011,0.019l-28.587,-16.405c-5.249,9.157 -10.46,18.247 -15.593,27.202l-0.01,-0.006l-0.009,0.015l-28.581,-16.402c-5.296,9.239 -10.509,18.333 -15.596,27.207l-0.016,-0.01l-0.006,0.011l-28.575,-16.399c-5.357,9.344 -10.574,18.444 -15.601,27.211l-0.02,-0.011l-0.003,0.004l-22.593,-12.966l-5.855,-3.358l-0.123,-0.071c-5.446,9.499 -10.669,18.608 -15.604,27.214l-0.024,-0.013l0,0.001l-19.279,-11.059l-9.292,-5.33c-18.024,31.433 -32.204,56.151 -39.413,68.691l-0.01,-0.007l39.399,-68.697l0.024,0.013l0.004,-0.007l28.567,16.395l15.607,-27.213l0.021,0.012l0.001,-0.001l5.977,3.43l13.486,7.736l9.11,5.226l15.605,-27.21l0.016,0.01l0.003,-0.005c9.622,5.519 19.172,10.998 28.578,16.393l15.602,-27.203l0.01,0.006l0.006,-0.01c9.708,5.568 19.262,11.049 28.584,16.397l15.599,-27.199l0.004,0.003l0.009,-0.015c9.818,5.632 19.378,11.117 28.589,16.401l11.981,-20.89l3.195,-5.573l0.419,-0.732l0.001,0.001l0.012,-0.02c9.98,5.726 19.549,11.216 28.591,16.404c5.209,-9.087 10.418,-18.174 15.589,-27.194l0.007,0.004l0.013,-0.022c32.112,18.425 57.572,33.04 71.115,40.826Zm-52.41,78.43l-0.013,0.013l-65.518,-37.6c-5.293,9.234 -10.504,18.324 -15.589,27.194l-0.016,-0.009l-0.013,0.023l-28.575,-16.399c-5.353,9.338 -10.567,18.433 -15.592,27.196l-0.02,-0.011l-0.012,0.019l-28.57,-16.396c-5.443,9.493 -10.663,18.597 -15.596,27.2l-0.024,-0.013l-0.009,0.015l-28.567,-16.395c-15.865,27.667 -28.763,50.153 -36.57,63.744l-0.017,-0.005l36.563,-63.752l0.024,0.013l0.006,-0.01c9.704,5.567 19.253,11.045 28.57,16.39l15.599,-27.199l0.021,0.012l0.009,-0.015c9.813,5.629 19.368,11.111 28.573,16.392l15.596,-27.194l0.016,0.009l0.011,-0.02c9.977,5.724 19.542,11.212 28.577,16.396l15.595,-27.191l0.01,0.006l0.013,-0.022c28.167,16.161 51.194,29.378 65.518,37.609Zm62.309,-108.925l-0.005,0.018l-65.414,-37.54l-15.595,27.191l-0.007,-0.005l-0.013,0.023l-28.584,-16.404l-15.596,27.194l-0.002,-0.001l-0.011,0.02l-28.59,-16.407l-3.572,6.229l-7.359,12.837l-4.663,8.135l-0.005,-0.003l-0.008,0.015l-28.587,-16.405c-5.25,9.159 -10.462,18.251 -15.596,27.207l-0.01,-0.006l-0.006,0.01l-28.581,-16.402c-5.297,9.241 -10.511,18.337 -15.599,27.212l-0.016,-0.009l-0.003,0.004l-22.515,-12.921l-5.855,-3.358l-0.206,-0.118c-5.358,9.346 -10.575,18.447 -15.602,27.215l-0.021,-0.012l-0.001,0.001l-19.2,-11.014l-9.373,-5.376c-5.446,9.498 -10.667,18.604 -15.601,27.208l-0.024,-0.013l-0.004,0.007c-9.617,-5.517 -19.164,-10.994 -28.57,-16.389c-15.55,27.118 -28.235,49.231 -36.045,62.828l-0.013,-0.013l36.034,-62.829l0.024,0.014l0.007,-0.013l28.567,16.395l15.604,-27.207l0.021,0.012l0.004,-0.007l28.57,16.396l15.607,-27.212l0.016,0.009l0.001,-0.001l6.06,3.477l13.486,7.736l9.032,5.181l15.605,-27.209l0.01,0.006l0.003,-0.005c9.624,5.521 19.176,11 28.584,16.397l15.602,-27.204l0.004,0.003l0.006,-0.01c9.709,5.569 19.265,11.051 28.589,16.4l12.027,-20.969l3.194,-5.573l0.377,-0.657l0.001,0.001l0.009,-0.015c9.819,5.632 19.38,11.117 28.592,16.402c5.21,-9.088 10.419,-18.176 15.591,-27.197l0.007,0.004l0.011,-0.019c9.978,5.724 19.545,11.213 28.586,16.4c5.248,-9.156 10.458,-18.243 15.589,-27.194l0.013,0.008l0.013,-0.023c28.03,16.083 50.997,29.266 65.406,37.545Zm-87.753,130.489l-0.019,0.014l-55.67,-31.948c-5.352,9.336 -10.566,18.43 -15.59,27.193l-0.021,-0.011l-0.013,0.022l-28.57,-16.396c-5.441,9.491 -10.66,18.593 -15.594,27.196l-0.023,-0.014l-0.011,0.02l-28.568,-16.395c-12.581,21.941 -23.299,40.627 -31.095,54.209l-0.025,-0.003l31.096,-54.219l0.024,0.013l0.009,-0.015c9.813,5.629 19.367,11.11 28.57,16.39l15.596,-27.194l0.021,0.012l0.011,-0.02c9.976,5.723 19.539,11.21 28.572,16.394l15.595,-27.191l0.016,0.009l0.013,-0.023c22.419,12.864 41.577,23.86 55.676,31.957Zm93.448,-163.396l-0.003,0.024l-55.503,-31.853l-15.595,27.191l-0.013,-0.008l-0.013,0.023l-28.578,-16.4l-15.597,27.194l-0.007,-0.005l-0.011,0.02l-28.584,-16.404l-15.599,27.199l-0.001,-0.001l-0.009,0.015l-28.59,-16.407l-3.53,6.155l-7.358,12.836l-4.709,8.215l-0.005,-0.003l-0.005,0.01l-28.587,-16.405c-5.251,9.161 -10.464,18.255 -15.599,27.212l-0.011,-0.006l-0.002,0.005l-22.437,-12.876l-5.855,-3.359l-0.289,-0.166c-5.299,9.242 -10.513,18.339 -15.602,27.216l-0.016,-0.01l-0.001,0.002l-19.122,-10.969l-9.456,-5.424c-5.357,9.344 -10.573,18.443 -15.599,27.209l-0.021,-0.012l-0.004,0.007c-9.618,-5.517 -19.167,-10.995 -28.573,-16.391c-5.445,9.497 -10.666,18.602 -15.598,27.203l-0.024,-0.013l-0.007,0.012c-9.7,-5.565 -19.25,-11.043 -28.57,-16.389c-12.168,21.219 -22.578,39.369 -30.268,52.767l-0.007,-0.009l-0.009,-0.011l30.26,-52.761l0.024,0.014l0.01,-0.018l28.567,16.395l15.601,-27.202l0.021,0.012l0.007,-0.012l28.57,16.396l15.604,-27.207l0.016,0.01l0.004,-0.007l28.575,16.398l15.607,-27.212l0.011,0.006l0,-0.001l6.144,3.526l13.486,7.736l8.953,5.135l15.606,-27.209l0.004,0.003l0.003,-0.005c9.625,5.522 19.179,11.002 28.589,16.4l12.072,-21.048l3.195,-5.573l0.334,-0.583l0.001,0.001l0.006,-0.01c9.71,5.57 19.267,11.052 28.593,16.402c5.21,-9.09 10.42,-18.179 15.593,-27.202l0.007,0.004l0.009,-0.015c9.816,5.631 19.376,11.115 28.586,16.399c5.249,-9.157 10.459,-18.245 15.591,-27.197l0.013,0.008l0.011,-0.02c9.975,5.723 19.54,11.211 28.58,16.397c5.294,-9.235 10.505,-18.325 15.589,-27.194l0.019,0.011l0.013,-0.023c22.274,12.781 41.357,23.733 55.493,31.852Zm-123.757,182.168l-0.027,0.014l-40.956,-23.504c-5.44,9.489 -10.659,18.59 -15.592,27.193l-0.024,-0.014l-0.012,0.023l-28.568,-16.395c-8.604,15.005 -16.338,28.49 -22.863,39.864l-0.031,0.001l22.871,-39.878l0.023,0.013l0.011,-0.019c9.975,5.723 19.538,11.209 28.569,16.391l15.595,-27.191l0.021,0.012l0.013,-0.023c15.389,8.831 29.24,16.78 40.97,23.513Zm124.569,-217.877l0.002,0.031l-40.712,-23.365l-15.595,27.191l-0.019,-0.01l-0.013,0.022l-28.572,-16.397l-15.597,27.194l-0.013,-0.008l-0.011,0.02l-28.578,-16.4l-15.599,27.198l-0.008,-0.004l-0.008,0.015l-28.584,-16.404l-15.602,27.204l-0.001,-0.001l-0.006,0.01l-28.59,-16.407l-3.487,6.08l-7.358,12.837l-4.755,8.294l-0.005,-0.002l-0.002,0.004l-22.359,-12.831l-5.855,-3.359l-0.373,-0.214c-5.253,9.163 -10.466,18.258 -15.602,27.216l-0.01,-0.006l-0.001,0.001l-19.044,-10.924l-9.54,-5.472c-5.297,9.24 -10.511,18.335 -15.598,27.21l-0.016,-0.01l-0.004,0.007c-9.62,-5.518 -19.17,-10.996 -28.578,-16.393c-5.356,9.343 -10.572,18.44 -15.596,27.204l-0.021,-0.012l-0.007,0.012c-9.702,-5.565 -19.252,-11.044 -28.573,-16.391c-5.444,9.495 -10.664,18.599 -15.595,27.198l-0.024,-0.014l-0.01,0.018c-9.808,-5.627 -19.362,-11.108 -28.569,-16.39c-8.098,14.122 -15.417,26.883 -21.672,37.786l-0.015,-0.028l21.663,-37.772l0.024,0.014l0.012,-0.022l28.567,16.394l15.598,-27.196l0.021,0.012l0.01,-0.017l28.57,16.396l15.601,-27.201l0.016,0.009l0.007,-0.013l28.575,16.399l15.604,-27.206l0.01,0.006l0.004,-0.007l28.581,16.402l15.607,-27.213l0.005,0.003l0,-0.001l6.228,3.574l13.486,7.736l8.875,5.091l12.118,-21.129l3.194,-5.572l0.292,-0.509l0.001,0.001l0.003,-0.005c9.626,5.522 19.181,11.003 28.593,16.402c5.211,-9.091 10.422,-18.182 15.596,-27.207l0.007,0.004l0.006,-0.01c9.708,5.569 19.263,11.05 28.586,16.399c5.25,-9.158 10.461,-18.249 15.594,-27.202l0.013,0.008l0.009,-0.016c9.814,5.63 19.371,11.113 28.58,16.396c5.295,-9.236 10.506,-18.327 15.591,-27.197l0.019,0.011l0.011,-0.02c9.972,5.722 19.536,11.209 28.574,16.395c5.354,-9.339 10.568,-18.433 15.591,-27.194l0.023,0.013l0.013,-0.022c15.247,8.748 29,16.641 40.697,23.356Zm-161.034,233.12l-0.034,0.011l-20.089,-11.528l-11.137,19.42l-0.036,0.007l11.15,-19.441l0.023,0.014l0.013,-0.023l20.11,11.54Zm155.663,-272.374l0.008,0.035l-19.74,-11.328l-15.594,27.191l-0.023,-0.013l-0.013,0.022l-28.568,-16.395l-15.597,27.194l-0.018,-0.01l-0.012,0.019l-28.572,-16.397l-15.599,27.198l-0.007,-0.004l-0.007,-0.003l-0.008,0.015l-28.578,-16.401l-15.602,27.204l-0.007,-0.004l-0.006,0.01l-28.584,-16.404l-15.605,27.209l-0.001,-0.001l-0.003,0.005l-22.279,-12.786l-5.855,-3.358l-0.456,-0.262l-3.444,6.005l-7.359,12.837l-4.8,8.373l-0.004,-0.003l-0.001,0.001l-18.967,-10.879l-9.623,-5.52c-5.251,9.161 -10.464,18.254 -15.598,27.21l-0.01,-0.006l-0.004,0.007c-9.623,-5.52 -19.174,-10.999 -28.584,-16.397c-5.296,9.239 -10.509,18.332 -15.595,27.204l-0.016,-0.009l-0.007,0.013c-9.704,-5.567 -19.256,-11.046 -28.578,-16.394c-5.355,9.341 -10.57,18.437 -15.593,27.199l-0.021,-0.012l-0.01,0.017c-9.81,-5.627 -19.365,-11.109 -28.573,-16.392c-5.443,9.494 -10.662,18.596 -15.592,27.194l-0.024,-0.014l-0.012,0.022c-9.968,-5.719 -19.53,-11.205 -28.569,-16.392l-9.452,16.481l-0.012,-0.035l9.44,-16.459l0.024,0.013l0.014,-0.024l28.567,16.394l15.596,-27.192l0.02,0.012l0.013,-0.021l28.57,16.396l15.598,-27.196l0.016,0.009l0.01,-0.018l28.575,16.399l15.601,-27.201l0.01,0.006l0.007,-0.012l28.581,16.402l15.604,-27.207l0.004,0.003l0.004,-0.007l28.587,16.405l12.163,-21.207l3.194,-5.573l0.248,-0.433l0.002,0.001l0,-0.001l6.311,3.621l13.486,7.736l8.796,5.045c5.212,-9.092 10.424,-18.185 15.599,-27.212l0.007,0.004l0.003,-0.004c9.624,5.52 19.177,11 28.587,16.398c5.25,-9.16 10.462,-18.252 15.596,-27.207l0.013,0.007l0.006,-0.01c9.705,5.568 19.258,11.048 28.58,16.396c5.296,-9.238 10.508,-18.33 15.594,-27.202l0.019,0.011l0.008,-0.015c9.812,5.628 19.368,11.11 28.576,16.393c5.354,-9.34 10.568,-18.435 15.592,-27.197l0.023,0.013l0.011,-0.019c9.97,5.72 19.532,11.206 28.57,16.392c5.443,-9.493 10.661,-18.595 15.592,-27.193l0.025,0.015l0.013,-0.023l19.719,11.316Zm-8.831,-30.359l0.013,0.037l-10.901,19.006l-0.025,-0.015l-0.013,0.023l-28.566,-16.393l-15.596,27.194l-0.023,-0.013l-0.011,0.019l-28.568,-16.395l-15.6,27.199l-0.018,-0.011l-0.009,0.015l-28.572,-16.397l-15.602,27.203l-0.013,-0.007l-0.006,0.01l-28.578,-16.401l-15.605,27.21l-0.008,-0.005l-0.002,0.005l-22.195,-12.738l-5.855,-3.358l-0.535,-0.307l-15.607,27.213l-0.001,-0.001l-0.001,0.001c-9.554,-5.48 -19.108,-10.961 -28.593,-16.401l-3.398,5.924l-7.358,12.837l-4.843,8.448l-0.004,-0.003l-0.004,0.007c-9.625,-5.521 -19.179,-11.001 -28.59,-16.4c-5.25,9.16 -10.462,18.251 -15.595,27.205l-0.01,-0.006l-0.007,0.012c-9.706,-5.567 -19.26,-11.048 -28.584,-16.397c-5.295,9.238 -10.507,18.329 -15.592,27.199l-0.016,-0.009l-0.01,0.018c-9.812,-5.629 -19.368,-11.111 -28.577,-16.395c-5.355,9.34 -10.569,18.434 -15.591,27.195l-0.021,-0.012l-0.012,0.021c-9.97,-5.719 -19.533,-11.206 -28.572,-16.393c-5.443,9.494 -10.662,18.595 -15.591,27.191l-0.024,-0.014l-0.014,0.025l-16.668,-9.566l-0.008,-0.037l16.69,9.578l15.594,-27.189l0.021,0.012l0.014,-0.024l28.57,16.396l15.595,-27.192l0.017,0.009l0.012,-0.022l28.575,16.399l15.598,-27.196l0.01,0.006l0.01,-0.017l28.581,16.402l15.6,-27.201l0.005,0.002l0.007,-0.012l28.587,16.405l12.205,-21.282l3.195,-5.572l0.202,-0.353l0.001,0.001l0.004,-0.008l28.59,16.408c5.213,-9.094 10.426,-18.188 15.601,-27.216l0.007,0.004l0.001,-0.001l6.389,3.666l13.486,7.736l8.711,4.997c5.252,-9.161 10.465,-18.255 15.6,-27.212l0.013,0.007l0.003,-0.004c9.621,5.519 19.172,10.998 28.581,16.395c5.296,-9.239 10.509,-18.333 15.596,-27.207l0.019,0.011l0.006,-0.01c9.703,5.566 19.254,11.045 28.575,16.392c5.355,-9.341 10.57,-18.437 15.595,-27.201l0.023,0.013l0.008,-0.015c9.81,5.628 19.364,11.109 28.571,16.391c5.443,-9.494 10.662,-18.597 15.594,-27.196l0.025,0.015l0.012,-0.02c9.968,5.719 19.529,11.205 28.567,16.39l10.913,-19.028Zm-16.875,-36.834l0.016,0.029l-22.621,39.443l-0.026,-0.015l-0.011,0.02l-28.566,-16.393l-15.599,27.198l-0.023,-0.013l-0.008,0.015l-28.568,-16.395l-15.602,27.204l-0.019,-0.011l-0.006,0.01l-28.572,-16.397l-15.605,27.209l-0.014,-0.008l-0.002,0.005l-22.112,-12.69l-5.854,-3.358l-0.613,-0.351l-15.607,27.212l-0.007,-0.004l-0.001,0.001c-9.552,-5.479 -19.104,-10.958 -28.587,-16.398l-15.604,27.206l-0.001,0l-0.004,0.007c-9.626,-5.522 -19.181,-11.003 -28.593,-16.402l-3.352,5.845l-7.359,12.837l-4.885,8.522l-0.004,-0.003l-0.008,0.013c-9.708,-5.569 -19.264,-11.051 -28.589,-16.401c-5.249,9.158 -10.46,18.247 -15.592,27.2l-0.01,-0.006l-0.01,0.017c-9.814,-5.63 -19.373,-11.113 -28.583,-16.398c-5.295,9.237 -10.506,18.327 -15.59,27.195l-0.016,-0.009l-0.013,0.022c-9.971,-5.721 -19.536,-11.209 -28.576,-16.396c-5.354,9.339 -10.567,18.432 -15.589,27.192l-0.021,-0.012l-0.014,0.024c-13.888,-7.969 -26.541,-15.23 -37.534,-21.541l-0.001,-0.032l37.549,21.549l15.594,-27.189l0.016,0.009l0.014,-0.025l28.575,16.399l15.595,-27.192l0.011,0.006l0.012,-0.021l28.581,16.402l15.597,-27.196l0.005,0.002l0.01,-0.017l28.587,16.405l12.248,-21.356l3.194,-5.573l0.157,-0.273l0.001,0.001l0.007,-0.013l28.59,16.408l10.349,-18.053l5.249,-9.157l0.007,0.004l0.004,-0.007l28.584,16.404c5.252,-9.163 10.465,-18.257 15.601,-27.216l0.013,0.008l0.001,-0.002l6.466,3.711l13.487,7.736l8.627,4.949c5.298,-9.241 10.512,-18.336 15.6,-27.212l0.019,0.011l0.002,-0.005c9.62,5.518 19.169,10.996 28.576,16.392c5.356,-9.342 10.572,-18.44 15.598,-27.206l0.023,0.013l0.005,-0.01c9.702,5.565 19.252,11.044 28.571,16.39c5.444,-9.495 10.664,-18.599 15.597,-27.2l0.025,0.015l0.009,-0.016c9.808,5.627 19.362,11.108 28.568,16.389c8.512,-14.843 16.166,-28.188 22.631,-39.457Zm-20.368,-30.736l0.016,0.02l-30.847,53.784l-0.026,-0.014l-0.008,0.015l-28.566,-16.393l-15.602,27.203l-0.023,-0.013l-0.005,0.01l-28.568,-16.395l-15.606,27.209l-0.018,-0.01l-0.003,0.004l-22.028,-12.641l-5.854,-3.359l-0.691,-0.396l-15.607,27.212l-0.013,-0.007l-0.001,0.001c-9.55,-5.478 -19.1,-10.956 -28.581,-16.395l-15.604,27.207l-0.007,-0.004l-0.004,0.007c-9.624,-5.521 -19.177,-11.001 -28.587,-16.399l-15.601,27.201l-0.001,0l-0.007,0.012c-9.71,-5.57 -19.267,-11.052 -28.593,-16.402l-3.307,5.766l-7.358,12.836l-4.928,8.597l-0.005,-0.003l-0.01,0.018c-9.816,-5.632 -19.376,-11.117 -28.588,-16.402c-5.249,9.157 -10.459,18.245 -15.59,27.196l-0.01,-0.006l-0.013,0.021c-9.974,-5.722 -19.54,-11.211 -28.582,-16.399c-5.294,9.236 -10.504,18.325 -15.588,27.192l-0.016,-0.009l-0.014,0.025c-20.598,-11.82 -38.474,-22.079 -52.244,-29.987l0.003,-0.026l52.255,29.988l15.594,-27.189l0.01,0.006l0.014,-0.024l28.581,16.402l15.595,-27.192l0.005,0.002l0.012,-0.021l28.586,16.405l12.291,-21.43l3.195,-5.573l0.111,-0.194l0.001,0.001l0.01,-0.018l28.59,16.408l10.391,-18.128l5.204,-9.077l0.007,0.004l0.007,-0.012l28.584,16.404c5.251,-9.16 10.463,-18.253 15.598,-27.21l0.013,0.007l0.004,-0.007l28.578,16.401c5.298,-9.242 10.513,-18.339 15.602,-27.216l0.018,0.011l0.001,-0.001l6.544,3.756l13.487,7.736l8.544,4.901c5.357,-9.345 10.574,-18.444 15.601,-27.212l0.023,0.013l0.002,-0.004c9.618,5.517 19.166,10.994 28.571,16.389c5.445,-9.496 10.666,-18.602 15.6,-27.205l0.025,0.015l0.006,-0.01c9.7,5.564 19.249,11.042 28.568,16.388c12.471,-21.747 23.102,-40.28 30.857,-53.79Zm-23.124,-25.929l0.013,0.013l-36.314,63.318l-0.026,-0.015l-0.005,0.01l-28.566,-16.393l-15.605,27.209l-0.023,-0.013l-0.002,0.004l-21.946,-12.594l-5.854,-3.359l-0.769,-0.441l-15.607,27.213l-0.019,-0.011l0,0.001c-9.549,-5.477 -19.097,-10.954 -28.576,-16.391l-15.604,27.206l-0.013,-0.007l-0.004,0.007c-9.623,-5.52 -19.174,-10.999 -28.581,-16.395l-15.601,27.201l-0.007,-0.004l-0.007,0.012c-9.708,-5.569 -19.263,-11.05 -28.587,-16.399l-15.598,27.196l-0.001,0l-0.01,0.017c-9.818,-5.632 -19.38,-11.117 -28.592,-16.403l-3.262,5.687l-7.358,12.837l-4.971,8.671l-0.005,-0.003l-0.012,0.022c-9.977,-5.724 -19.545,-11.214 -28.588,-16.403c-5.248,9.156 -10.457,18.243 -15.588,27.193l-0.01,-0.007l-0.014,0.025c-25.941,-14.885 -47.559,-27.293 -62.086,-35.639l0.005,-0.021l62.095,35.635l15.593,-27.189l0.005,0.003l0.014,-0.024l28.586,16.405l12.334,-21.505l3.195,-5.573l0.066,-0.115l0.001,0.001l0.012,-0.022l28.59,16.408l10.434,-18.202l5.158,-8.998l0.007,0.004l0.01,-0.017l28.584,16.404c5.249,-9.158 10.461,-18.249 15.595,-27.205l0.013,0.008l0.007,-0.013l28.578,16.401c5.296,-9.24 10.51,-18.335 15.598,-27.21l0.019,0.011l0.004,-0.007l28.572,16.397c5.358,-9.345 10.575,-18.446 15.603,-27.215l0.023,0.013l0.001,-0.001l6.622,3.801l13.487,7.736l8.461,4.854c5.446,-9.498 10.668,-18.606 15.603,-27.211l0.025,0.015l0.003,-0.005c9.617,5.517 19.164,10.993 28.568,16.388c15.718,-27.41 28.518,-49.721 36.327,-63.316Zm-25.498,-21.79l0.01,0.008l-39.407,68.71l-0.026,-0.015l-0.002,0.005l-21.865,-12.548l-5.855,-3.358l-0.846,-0.486l-15.607,27.212l-0.023,-0.013l-0.001,0.001c-9.547,-5.476 -19.094,-10.952 -28.572,-16.389l-15.603,27.207l-0.019,-0.011l-0.004,0.007c-9.621,-5.519 -19.17,-10.996 -28.576,-16.392l-15.6,27.201l-0.013,-0.007l-0.007,0.012c-9.706,-5.567 -19.26,-11.048 -28.581,-16.395l-15.598,27.196l-0.007,-0.004l-0.01,0.017c-9.817,-5.631 -19.376,-11.115 -28.586,-16.4l-15.596,27.192l-0.001,0l-0.012,0.021c-9.979,-5.725 -19.549,-11.215 -28.592,-16.404l-3.217,5.61l-7.359,12.836l-5.013,8.746l-0.005,-0.003l-0.014,0.024c-29.569,-16.967 -53.514,-30.712 -67.732,-38.884l0.006,-0.016l67.74,38.876l12.377,-21.579l3.194,-5.573l0.022,-0.038l0.001,0.001l0.014,-0.025l28.59,16.408l10.476,-18.276l5.113,-8.92l0.008,0.004l0.012,-0.021l28.584,16.404c5.248,-9.157 10.459,-18.246 15.592,-27.2l0.013,0.008l0.01,-0.018l28.578,16.401c5.295,-9.238 10.508,-18.331 15.595,-27.204l0.018,0.01l0.008,-0.012l28.572,16.397c5.356,-9.343 10.573,-18.442 15.6,-27.209l0.022,0.013l0.004,-0.007l28.569,16.395c5.445,-9.498 10.668,-18.607 15.604,-27.214l0.026,0.015l0,-0.002l6.701,3.846l13.486,7.736l8.381,4.807c17.998,-31.385 32.174,-56.095 39.423,-68.703Zm-27.66,-18.005l-40.331,70.319l-0.025,-0.014l-0.001,0.001c-9.547,-5.476 -19.093,-10.952 -28.569,-16.387l-15.604,27.206l-0.022,-0.013l-0.004,0.007c-9.62,-5.518 -19.168,-10.995 -28.572,-16.389l-15.6,27.201l-0.019,-0.011l-0.007,0.013c-9.704,-5.567 -19.256,-11.046 -28.575,-16.393l-15.598,27.196l-0.013,-0.007l-0.01,0.017c-9.815,-5.63 -19.372,-11.113 -28.581,-16.396l-15.595,27.192l-0.007,-0.005l-0.013,0.022c-9.977,-5.724 -19.545,-11.213 -28.585,-16.401l-15.594,27.189l-0.001,0l-0.014,0.024c-30.887,-17.723 -55.629,-31.926 -69.546,-39.926l0.008,-0.014l69.552,39.916l10.519,-18.351l5.069,-8.842l0.007,0.004l0.014,-0.024l28.584,16.403c5.247,-9.154 10.457,-18.242 15.589,-27.195l0.013,0.008l0.013,-0.022l28.578,16.401c5.294,-9.236 10.506,-18.327 15.592,-27.199l0.019,0.01l0.01,-0.017l28.572,16.397c5.355,-9.34 10.57,-18.437 15.596,-27.203l0.023,0.013l0.007,-0.013l28.569,16.395c5.444,-9.496 10.665,-18.602 15.601,-27.208l0.025,0.015l0.004,-0.008l28.566,16.394c18.777,-32.745 33.4,-58.234 40.346,-70.311l0.01,0.006Zm-29.768,-14.357l-39.154,68.268l-0.025,-0.014l-0.004,0.007c-9.619,-5.518 -19.166,-10.994 -28.569,-16.388l-15.601,27.201l-0.022,-0.013l-0.008,0.013c-9.703,-5.567 -19.253,-11.045 -28.571,-16.391l-15.597,27.197l-0.019,-0.011l-0.01,0.018c-9.813,-5.63 -19.369,-11.112 -28.575,-16.394l-15.595,27.192l-0.013,-0.007l-0.013,0.021c-9.975,-5.723 -19.541,-11.211 -28.579,-16.398l-15.594,27.19l-0.007,-0.005l-0.014,0.025c-29.561,-16.962 -53.485,-30.695 -67.665,-38.846l0.01,-0.013l67.669,38.834c5.247,-9.153 10.456,-18.24 15.588,-27.192l0.013,0.007l0.014,-0.024l28.578,16.401c5.293,-9.234 10.504,-18.324 15.59,-27.195l0.018,0.01l0.013,-0.022l28.572,16.398c5.354,-9.338 10.568,-18.434 15.594,-27.199l0.022,0.013l0.01,-0.017l28.569,16.395c5.442,-9.493 10.663,-18.598 15.597,-27.203l0.026,0.015l0.007,-0.013l28.566,16.394c17.759,-30.97 31.807,-55.457 39.167,-68.259l0.012,0.005Zm-31.956,-10.541l-35.789,62.401l-0.025,-0.014l-0.008,0.012c-9.702,-5.565 -19.251,-11.043 -28.568,-16.388l-15.598,27.196l-0.022,-0.013l-0.01,0.017c-9.812,-5.628 -19.367,-11.11 -28.571,-16.39l-15.595,27.191l-0.019,-0.01l-0.012,0.022c-9.975,-5.723 -19.539,-11.21 -28.574,-16.395l-15.594,27.189l-0.013,-0.007l-0.014,0.024c-25.911,-14.868 -47.484,-27.251 -61.952,-35.563l0.015,-0.015l61.951,35.554c5.292,-9.233 10.503,-18.322 15.588,-27.193l0.019,0.011l0.014,-0.025l28.572,16.398c5.353,-9.337 10.566,-18.431 15.591,-27.194l0.023,0.013l0.012,-0.022l28.569,16.395c5.441,-9.491 10.661,-18.594 15.594,-27.198l0.026,0.015l0.01,-0.018l28.566,16.394c15.332,-26.737 27.901,-48.649 35.795,-62.392l0.019,0.005Zm-34.366,-6.339l-30.014,52.332l-0.025,-0.014l-0.011,0.017c-9.811,-5.628 -19.364,-11.109 -28.567,-16.389l-15.596,27.192l-0.022,-0.013l-0.013,0.022c-9.973,-5.722 -19.536,-11.209 -28.57,-16.393l-15.593,27.189l-0.019,-0.01l-0.014,0.024c-20.534,-11.782 -38.34,-22.002 -52.04,-29.869l0.022,-0.016l52.032,29.861c5.352,-9.335 10.565,-18.428 15.59,-27.192l0.022,0.013l0.014,-0.024l28.569,16.395c5.44,-9.489 10.659,-18.59 15.592,-27.194l0.026,0.015l0.012,-0.022l28.566,16.394c11.999,-20.927 22.309,-38.901 30.013,-52.321l0.026,0.003Zm-37.187,-1.42l-21.418,37.344l-0.025,-0.014l-0.013,0.021c-9.973,-5.721 -19.534,-11.207 -28.567,-16.39l-15.594,27.189l-0.022,-0.013l-0.014,0.024c-13.787,-7.911 -26.343,-15.116 -37.249,-21.377l0.029,-0.015l37.234,21.368c5.439,-9.487 10.657,-18.588 15.591,-27.191l0.025,0.015l0.014,-0.025l28.566,16.394c7.97,-13.9 15.196,-26.499 21.409,-37.328l0.034,-0.002Zm-40.815,4.905l-9.194,16.031l-0.025,-0.015l-0.014,0.025l-16.275,-9.34l0.036,-0.011l16.253,9.326c3.184,-5.553 6.25,-10.899 9.18,-16.008l0.039,-0.008Z" style="fill:none;stroke:#9e8484;stroke-opacity:0.09;stroke-width:0.67px;"/><text x="142.715px" y="265.048px" style="font-family:'Roboto-Bold', 'Roboto';font-weight:700;font-size:63.358px;fill:#a90000;">L<tspan x="178.311px 215.564px 233.215px 271.216px " y="265.048px 265.048px 265.048px 265.048px ">uigi</tspan></text><text x="198.931px" y="324.016px" style="font-family:'Roboto-Bold', 'Roboto';font-weight:700;font-size:63.358px;fill:#a90000;">C<tspan x="242.491px 278.184px 312.414px 334.909px " y="324.016px 324.016px 324.016px 324.016px ">astr</tspan>o</text><g transform="matrix(6.43416e-17,1,-1,5.82733e-17,515.868,-235.636)"><text x="419.74px" y="208.746px" style="font-family:'Roboto-Regular', 'Roboto';font-size:28.92px;fill:#8f8f8f;">D<tspan x="437.788px 452.369px 466.56px 473.239px 488.68px " y="208.746px 208.746px 208.746px 208.746px 208.746px ">esign</tspan></text></g><text x="242.914px" y="353.041px" style="font-family:'Roboto-Regular', 'Roboto';font-size:31.949px;fill:#a98866;">P<tspan x="264.093px 275.125px 294.272px 302.288px 320.073px 337.646px " y="353.041px 353.041px 353.041px 353.041px 353.041px 353.041px ">roject</tspan></text><text x="207.564px" y="387.683px" style="font-family:'Roboto-Regular', 'Roboto';font-size:31.949px;fill:#a98866;">M<tspan x="236.874px 255.135px 273.659px 291.92px 310.755px 328.541px 357.966px 375.752px 394.275px " y="387.683px 387.683px 387.683px 387.683px 387.683px 387.683px 387.683px 387.683px 387.683px ">anagement</tspan></text><g transform="matrix(-1.93025e-16,-1,1,-1.7482e-16,-345.078,564.809)"><text x="160.93px" y="534.613px" style="font-family:'Roboto-Regular', 'Roboto';font-size:33.572px;fill:#8f8f8f;">C<tspan x="181.726px 192.24px 209.167px 226.545px 236.982px 244.735px 260.211px 267.964px 278.401px " y="534.613px 534.613px 534.613px 534.613px 534.613px 534.613px 534.613px 534.613px 534.613px ">reativity</tspan></text></g><g transform="matrix(-1.93025e-16,-1,1,-1.7482e-16,-104.458,812.637)"><text x="405.154px" y="538.218px" style="font-family:'Roboto-Regular', 'Roboto';font-size:33.572px;fill:#8f8f8f;">E<tspan x="423.313px 439.147px 457.072px 473.999px 484.81px 492.563px 509.489px 527.118px 543.841px " y="538.218px 538.218px 538.218px 538.218px 538.218px 538.218px 538.218px 538.218px 538.218px ">xperience</tspan></text></g><g transform="matrix(4.45728e-17,-1,1,4.0369e-17,-23.5,578.51)"><text x="328.228px" y="380.142px" style="font-family:'Roboto-Regular', 'Roboto';font-size:33.347px;fill:#af6666;">S<tspan x="347.056px 364.551px 382.356px 400.16px 418.26px 429.773px " y="380.142px 380.142px 380.142px 380.142px 380.142px 380.142px ">upport</tspan></text></g><text x="368.122px" y="244.704px" style="font-family:'Roboto-Regular', 'Roboto';font-size:24.719px;fill:#8f8f8f;">A<tspan x="385.066px 394.49px 402.974px 409.278px 422.67px " y="244.704px 244.704px 244.704px 244.704px 244.704px ">rtist</tspan></text><text x="74.504px" y="206.417px" style="font-family:'Roboto-Regular', 'Roboto';font-size:31.949px;fill:#986b79;">D<tspan x="96.519px 114.092px 130.14px 147.926px 156.073px 175.22px 194.055px 223.479px 241.265px 259.789px " y="206.417px 206.417px 206.417px 206.417px 206.417px 206.417px 206.417px 206.417px 206.417px 206.417px ">evelopment</tspan></text><g transform="matrix(-1.93025e-16,-1,1,-1.7482e-16,-407.692,469.222)"><text x="172.422px" y="549.043px" style="font-family:'Roboto-Regular', 'Roboto';font-size:35.214px;fill:#8f8f8f;">L<tspan x="190.455px 198.587px 217.078px 235.552px " y="549.043px 549.043px 549.043px 549.043px ">inux</tspan></text></g><text x="333.643px" y="273.216px" style="font-family:'Roboto-Regular', 'Roboto';font-size:23.44px;fill:#8f8f8f;">M<tspan x="355.146px 371.177px 385.79px " y="273.216px 273.216px 273.216px ">CSE</tspan></text><g transform="matrix(6.43416e-17,-1,1,5.82733e-17,-159.437,539.995)"><text x="331.936px" y="460.302px" style="font-family:'Roboto-Regular', 'Roboto';font-size:35.214px;fill:#8f8f8f;">W<tspan x="361.669px 369.801px 388.292px 407.192px 426.304px 451.487px " y="460.302px 460.302px 460.302px 460.302px 460.302px 460.302px ">indows</tspan></text></g></g></svg>