<?xml version="1.0" encoding="UTF-8" standalone="no"?><!DOCTYPE svg PUBLIC "-//W3C//DTD SVG 1.1//EN" "http://www.w3.org/Graphics/SVG/1.1/DTD/svg11.dtd"><svg width="100%" height="100%" viewBox="0 0 1898 355" version="1.1" xmlns="http://www.w3.org/2000/svg" xmlns:xlink="http://www.w3.org/1999/xlink" xml:space="preserve" xmlns:serif="http://www.serif.com/" style="fill-rule:evenodd;clip-rule:evenodd;stroke-linejoin:round;stroke-miterlimit:2;"><g><path d="M19.168,4.024c4.293,4.293 4.293,11.263 0,15.556c-4.292,4.293 -11.263,4.293 -15.556,0c-4.293,-4.293 -4.293,-11.263 0,-15.556c4.293,-4.293 11.264,-4.293 15.556,0Zm-4.257,7.811l3.487,-3.486l-3.487,-3.488l-3.487,3.487l-3.487,-3.487l-3.487,3.488l3.487,3.486l-3.487,3.487l3.487,3.488l3.487,-3.487l3.487,3.487l3.487,-3.488l-3.487,-3.487Z" style="fill:#fff;"/><path d="M1890.72,10.964c4.293,4.293 4.293,11.264 0,15.556c-4.293,4.293 -11.263,4.293 -15.556,0c-4.293,-4.292 -4.293,-11.263 0,-15.556c4.293,-4.293 11.263,-4.293 15.556,0Zm-4.257,7.812l3.487,-3.487l-3.487,-3.487l-3.487,3.487l-3.487,-3.487l-3.487,3.487l3.487,3.487l-3.487,3.487l3.487,3.487l3.487,-3.487l3.487,3.487l3.487,-3.487l-3.487,-3.487Z" style="fill:#fff;"/><path d="M19.168,335.724c4.293,4.293 4.293,11.263 0,15.556c-4.292,4.293 -11.263,4.293 -15.556,0c-4.293,-4.293 -4.293,-11.263 0,-15.556c4.293,-4.293 11.264,-4.293 15.556,0Zm-4.257,7.812l3.487,-3.487l-3.487,-3.488l-3.487,3.487l-3.487,-3.487l-3.487,3.488l3.487,3.487l-3.487,3.487l3.487,3.487l3.487,-3.487l3.487,3.487l3.487,-3.487l-3.487,-3.487Z" style="fill:#fff;"/><path d="M1894.78,334.27c4.292,4.293 4.292,11.264 0,15.556c-4.293,4.293 -11.264,4.293 -15.557,0c-4.293,-4.292 -4.293,-11.263 0,-15.556c4.293,-4.293 11.264,-4.293 15.557,0Zm-4.258,7.812l3.487,-3.487l-3.487,-3.487l-3.487,3.487l-3.487,-3.487l-3.487,3.487l3.487,3.487l-3.487,3.487l3.487,3.487l3.487,-3.487l3.487,3.487l3.487,-3.487l-3.487,-3.487Z" style="fill:#fff;"/></g></svg>