<?xml version="1.0" encoding="UTF-8" standalone="no"?><!DOCTYPE svg PUBLIC "-//W3C//DTD SVG 1.1//EN" "http://www.w3.org/Graphics/SVG/1.1/DTD/svg11.dtd"><svg width="100%" height="100%" viewBox="0 0 402 353" version="1.1" xmlns="http://www.w3.org/2000/svg" xmlns:xlink="http://www.w3.org/1999/xlink" xml:space="preserve" xmlns:serif="http://www.serif.com/" style="fill-rule:evenodd;clip-rule:evenodd;stroke-linecap:round;stroke-linejoin:round;stroke-miterlimit:1.5;"><g><g><rect x="6.62" y="6.037" width="389.38" height="289.254" style="fill:none;stroke:#000;stroke-width:12px;"/><path id="Logos" d="M176.219,133.727c-4.455,1.404 -7.646,2.877 -12.033,4.463c-14.034,5.073 -27.86,11.133 -41.418,17.759c-7.6,3.725 -15.081,7.707 -22.45,11.869l-0.844,0.479c-2.528,27.205 -15.466,53.812 -37.763,70.992c-6.418,4.946 -14.184,10.174 -21.56,6.544c-7.14,-3.515 -8.747,-14.063 -7.26,-20.982c2.893,-13.461 13.27,-24.581 23.244,-33.22c10.036,-8.692 21.645,-15.796 32.277,-22.183l0.318,-0.19c1.239,-20.977 -3.59,-42.344 -12.426,-60.36c-2.928,-5.969 -6.452,-11.813 -9.073,-17.775c-0.398,-0.893 -1.097,-2.166 -1.097,-2.166l-0.888,-0.183l-2.498,-1.711l-1.678,-2.532c0,0 -0.601,-3.098 -0.601,-3.098l0.644,-3.077c1.701,-2.488 1.728,-2.517 4.236,-4.184c1.023,-0.196 2.028,-0.6 3.07,-0.586c3.886,0.081 7.498,2.316 9.805,5.566c1.824,2.569 2.892,5.584 3.964,8.551c0.096,0.264 0.307,0.735 0.487,1.14c3.378,7.53 7.034,14.904 9.736,22.807c5.608,16.401 8.229,33.979 7.462,50.957l-0.007,0.144c19.189,-10.931 38.841,-20.996 59.401,-29.36c6.313,-2.568 11.436,-5.069 17.848,-7.28l-0.896,7.616Zm-133.277,106.376l0.107,0.044c-0.232,-0.097 -0.079,-0.032 -0.095,-0.039l-0.012,-0.005Zm0.996,0.295c-0.164,-0.018 0.014,0.009 0,0l0,0Zm123.769,-90.426c1.947,-0.941 3.72,-2.233 5.159,-4.007c1.776,-2.188 3.196,-4.921 4.261,-8.198c1.065,-3.277 1.74,-7.044 2.024,-11.3c0.284,-4.256 0.193,-12.527 -0.273,-17.608c-0.363,0.8 -0.837,1.711 -1.421,2.733c-0.584,1.022 -1.217,2.021 -1.901,2.997c-0.684,0.976 -1.374,1.899 -2.07,2.769c-0.696,0.87 -1.313,1.545 -1.852,2.024c-0.877,0.163 -1.771,0.098 -2.682,-0.196c-0.911,-0.294 -1.787,-0.753 -2.628,-1.377c-0.841,-0.625 -1.602,-1.404 -2.283,-2.337c-0.681,-0.934 -1.24,-1.983 -1.675,-3.147c-0.709,-1.892 -1.084,-3.964 -1.126,-6.216c-0.043,-2.252 0.158,-4.555 0.603,-6.907c0.445,-2.352 1.136,-4.673 2.074,-6.962c0.938,-2.289 2.054,-4.396 3.349,-6.321c1.295,-1.925 2.71,-3.604 4.244,-5.038c1.534,-1.434 3.172,-2.479 4.915,-3.133c1.694,-0.637 3.097,-0.763 4.208,-0.378c1.11,0.385 2.177,1.353 3.2,2.905c-0.642,-0.091 -1.374,0.019 -2.197,0.328c-1.162,0.436 -2.333,1.402 -3.513,2.897c-1.18,1.494 -2.28,3.277 -3.3,5.347c-1.019,2.071 -1.945,4.355 -2.777,6.853c-0.832,2.498 -1.469,4.964 -1.91,7.398c-0.442,2.435 -0.684,4.739 -0.726,6.912c-0.042,2.174 0.218,4.012 0.781,5.516c0.127,0.339 0.228,0.536 0.304,0.591c0.076,0.054 0.162,0.063 0.259,0.027c0.435,-0.164 0.938,-0.629 1.507,-1.396c0.568,-0.767 1.184,-1.704 1.847,-2.81c0.662,-1.107 1.316,-2.348 1.96,-3.724c0.645,-1.377 1.236,-2.747 1.775,-4.111c1.21,-3.111 2.134,-6.432 2.772,-9.963c0.639,-3.532 0.958,-6.847 0.957,-9.945c1.344,-0.394 2.588,-0.612 3.731,-0.655c1.144,-0.042 1.982,0.058 2.515,0.3c-0.23,4.402 -0.36,8.074 -0.39,11.018c-0.03,2.943 -0.036,5.546 -0.017,7.807c0,3.984 -0.029,7.632 -0.086,10.945c-0.057,3.314 -0.22,10.02 -0.49,12.916c-0.269,2.895 -0.698,5.656 -1.288,8.284c-0.59,2.629 -1.393,5.24 -2.41,7.835c-0.478,1.231 -1.106,2.394 -1.883,3.488c-0.778,1.095 -1.62,2.089 -2.528,2.983c-0.908,0.895 -1.837,1.659 -2.787,2.292c-0.95,0.634 -1.861,1.114 -2.732,1.442c-1.162,0.436 -2.398,0.749 -3.708,0.937c-1.311,0.188 -2.572,0.247 -3.786,0.177c-0.217,-0.012 -0.498,-0.074 -0.749,-0.121c-0.585,1.054 -1.11,2.194 -1.572,3.419c-0.615,1.628 -1.095,3.337 -1.441,5.129c-2.432,12.379 -1.479,23.527 2.858,33.443c1.536,3.511 3.315,6.095 5.339,7.751c2.023,1.657 4.017,2.28 5.983,1.87c1.829,-1.369 3.839,-3.806 6.031,-7.314c2.192,-3.507 4.388,-7.78 6.587,-12.817c0.681,0.266 1.183,0.64 1.506,1.12c-0.588,2.398 -1.255,4.745 -2,7.043c-0.745,2.298 -1.54,4.449 -2.385,6.452c-0.845,2.004 -1.739,3.832 -2.682,5.484c-0.943,1.653 -1.882,3.022 -2.818,4.109c-5.872,2.578 -11.041,2.894 -15.506,0.947c-4.465,-1.947 -8.089,-6.104 -10.873,-12.469c-1.455,-3.325 -2.493,-6.763 -3.114,-10.313c-0.621,-3.549 -0.85,-7.073 -0.686,-10.571c0.163,-3.497 0.703,-6.877 1.619,-10.139c0.916,-3.261 2.162,-6.286 3.737,-9.073c1.576,-2.787 3.477,-5.249 5.703,-7.387c2.226,-2.138 4.736,-3.821 7.53,-5.047c1.704,-0.748 2.921,-1.297 4.395,-1.499l-2.133,2.641c0,0 -1.89,1.883 -2.79,2.78c-0.184,0.183 -0.365,0.373 -0.545,0.57Zm46.502,5.951c0.485,-0.179 1.086,-0.304 1.804,-0.374c0.718,-0.071 1.393,-0.071 2.025,0c0.631,0.07 1.183,0.185 1.654,0.343c0.471,0.157 0.751,0.358 0.84,0.601c-0.222,2.399 -0.366,4.784 -0.434,7.154c-0.067,2.371 -0.044,4.611 0.069,6.722c0.113,2.11 0.314,4.05 0.605,5.82c0.291,1.769 0.659,3.262 1.105,4.477c0.499,1.362 1.059,2.439 1.68,3.231c0.621,0.792 1.343,1.258 2.165,1.397c-0.44,0.603 -1.076,1.196 -1.909,1.779c-0.833,0.582 -1.614,1.007 -2.342,1.275c-2.621,0.965 -4.591,-0.352 -5.91,-3.95c-1.017,-2.772 -1.485,-6.904 -1.406,-12.396c-0.154,2.584 -0.503,5.088 -1.045,7.514c-0.543,2.425 -1.195,4.629 -1.955,6.612c-0.76,1.984 -1.634,3.693 -2.623,5.128c-0.989,1.435 -2.006,2.455 -3.051,3.06c-1.796,0.661 -3.552,0.379 -5.268,-0.846c-1.716,-1.225 -3.039,-3.107 -3.97,-5.646c-1.003,-2.735 -1.477,-5.83 -1.422,-9.286c0.055,-3.456 0.518,-6.813 1.389,-10.071c0.871,-3.257 2.056,-6.146 3.556,-8.665c1.5,-2.52 3.245,-4.146 5.235,-4.878c0.539,-0.033 1.192,0.058 1.959,0.271c0.766,0.213 1.535,0.508 2.307,0.884c0.772,0.377 1.463,0.797 2.073,1.26c0.611,0.464 1.021,0.905 1.229,1.324c-1.834,1.005 -3.49,2.688 -4.966,5.048c-1.475,2.36 -2.637,4.976 -3.484,7.848c-0.848,2.872 -1.334,5.79 -1.459,8.754c-0.125,2.964 0.222,5.561 1.04,7.793c0.338,0.921 0.891,1.378 1.659,1.371c1.301,-0.81 2.486,-2.612 3.554,-5.406c1.069,-2.794 2.103,-6.885 3.101,-12.275c0.165,-1.054 0.354,-2.227 0.568,-3.52c0.215,-1.293 0.424,-2.639 0.627,-4.038c0.203,-1.4 0.389,-2.806 0.559,-4.221c0.17,-1.415 0.317,-2.779 0.441,-4.094Zm36.046,-11.355c0.251,0.953 0.404,1.979 0.457,3.077c0.054,1.098 0.014,2.117 -0.118,3.058c-0.133,0.94 -0.334,1.753 -0.603,2.438c-0.269,0.685 -0.6,1.091 -0.994,1.218c-0.557,0.125 -0.996,-0.141 -1.316,-0.8c-0.047,-0.148 -0.061,-0.402 -0.041,-0.762c0.021,-0.361 0.041,-0.762 0.062,-1.204c0.021,-0.442 0.03,-0.88 0.027,-1.314c-0.004,-0.434 -0.053,-0.799 -0.148,-1.095c-0.222,-0.691 -0.568,-1.219 -1.038,-1.584c-0.47,-0.365 -0.976,-0.461 -1.518,-0.287c-1.969,0.635 -3.076,2.345 -3.323,5.132c-0.246,2.787 0.395,6.561 1.923,11.322c0.157,0.491 0.276,0.777 0.357,0.859l5.169,-1.665c0.08,0.082 0.168,0.271 0.262,0.565c0.142,0.442 0.146,0.793 0.012,1.052c-1.053,0.611 -1.885,1.109 -2.494,1.495c-0.609,0.385 -1.063,0.708 -1.36,0.966c-0.298,0.258 -0.456,0.485 -0.474,0.68c-0.019,0.196 0.019,0.441 0.113,0.735c0.126,0.392 0.265,0.781 0.415,1.166c0.151,0.384 0.32,0.871 0.509,1.46c1.323,4.122 1.268,7.8 -0.166,11.032c-1.434,3.233 -4.081,5.688 -7.942,7.367c-0.705,0.173 -1.482,0.205 -2.331,0.098c-0.849,-0.107 -1.693,-0.325 -2.532,-0.654c-0.838,-0.328 -1.611,-0.746 -2.317,-1.253c-0.706,-0.507 -1.268,-1.074 -1.686,-1.701c-0.606,-1.889 -0.791,-3.817 -0.553,-5.786c0.237,-1.968 0.821,-3.828 1.752,-5.582c0.931,-1.753 2.188,-3.337 3.771,-4.751c1.583,-1.415 3.457,-2.471 5.623,-3.168c-0.397,-1.238 -0.909,-2.412 -1.537,-3.522c-0.628,-1.109 -1.255,-2.177 -1.884,-3.205c-0.628,-1.027 -1.236,-2.034 -1.824,-3.019c-0.588,-0.986 -1.049,-1.999 -1.383,-3.039c-0.429,-1.337 -0.583,-2.749 -0.463,-4.236c0.12,-1.487 0.445,-2.93 0.973,-4.33c0.529,-1.399 1.256,-2.686 2.184,-3.859c0.927,-1.173 1.982,-2.114 3.167,-2.824c0.589,-0.026 1.453,0.171 2.593,0.593c1.141,0.422 2.296,0.934 3.467,1.536c1.171,0.603 2.247,1.249 3.229,1.939c0.982,0.691 1.642,1.308 1.98,1.852Zm-13.542,41.58c1.023,-0.874 1.913,-1.95 2.671,-3.227c0.757,-1.278 1.34,-2.636 1.748,-4.073c0.408,-1.437 0.632,-2.897 0.672,-4.379c0.041,-1.482 -0.145,-2.864 -0.556,-4.147c-0.937,0.465 -1.874,1.27 -2.81,2.415c-0.936,1.145 -1.751,2.414 -2.445,3.807c-0.693,1.394 -1.202,2.768 -1.528,4.125c-0.325,1.356 -0.353,2.453 -0.084,3.291c0.348,1.085 1.126,1.814 2.332,2.188Zm20.552,-42.303c-0.323,-0.243 -0.702,-0.832 -1.135,-1.767c-0.433,-0.936 -0.733,-1.756 -0.9,-2.462c1.356,-0.108 2.638,-0.306 3.845,-0.592c1.208,-0.286 2.315,-0.548 3.321,-0.787c0.402,-1.673 0.87,-3.35 1.403,-5.029c0.533,-1.679 1.071,-3.228 1.613,-4.645c0.542,-1.418 1.078,-2.637 1.607,-3.658c0.53,-1.02 0.967,-1.702 1.31,-2.047c0.504,-0.119 1.166,-0.183 1.988,-0.191c0.821,-0.008 1.667,0.031 2.538,0.117c0.87,0.087 1.668,0.204 2.394,0.351c0.725,0.147 1.25,0.343 1.573,0.585c-1.061,2.26 -1.94,4.332 -2.637,6.216c-0.698,1.883 -1.428,4.025 -2.189,6.426c1.006,-0.239 2.025,-0.48 3.057,-0.725c1.031,-0.244 2.057,-0.567 3.078,-0.969c0.312,0.193 0.587,0.46 0.827,0.802c0.241,0.343 0.408,0.716 0.504,1.119c-2.24,1.542 -5.121,2.73 -8.643,3.565c-0.685,2.724 -1.235,5.403 -1.649,8.036c-0.415,2.633 -0.699,5.142 -0.853,7.527c-0.155,2.384 -0.188,4.607 -0.1,6.667c0.088,2.061 0.317,3.875 0.687,5.441c0.525,2.224 1.648,3.265 3.368,3.125c1.462,-0.56 2.807,-1.278 4.034,-2.154c1.228,-0.877 2.269,-1.869 3.123,-2.976c0.409,0.382 0.675,0.719 0.796,1.009c-0.195,0.522 -0.587,1.17 -1.175,1.944c-0.587,0.774 -1.241,1.55 -1.96,2.328c-0.72,0.778 -1.435,1.463 -2.146,2.054c-0.71,0.591 -1.261,0.96 -1.651,1.106c-1.258,0.298 -2.576,0.344 -3.953,0.137c-1.377,-0.206 -2.671,-0.566 -3.881,-1.079c-1.21,-0.513 -2.253,-1.158 -3.127,-1.937c-0.875,-0.779 -1.42,-1.622 -1.634,-2.531c-0.286,-1.211 -0.483,-2.776 -0.591,-4.696c-0.108,-1.919 -0.116,-4.036 -0.024,-6.349c0.091,-2.314 0.259,-4.752 0.504,-7.315c0.245,-2.562 0.572,-5.118 0.98,-7.666l-4.302,1.02Zm26.962,22.216c0.07,-1.523 0.273,-3.545 0.609,-6.067c0.335,-2.522 0.767,-5.213 1.296,-8.072c0.528,-2.859 1.106,-5.738 1.733,-8.636c0.628,-2.898 1.265,-5.51 1.912,-7.836c0.468,-1.677 0.902,-2.998 1.302,-3.962c0.401,-0.963 0.87,-1.792 1.409,-2.487c0.731,0.013 1.497,0.1 2.299,0.26c0.802,0.16 1.584,0.375 2.348,0.645c0.763,0.269 1.451,0.562 2.064,0.876c0.612,0.315 1.095,0.633 1.448,0.954c-1.18,1.819 -2.164,3.848 -2.952,6.087c-0.788,2.24 -1.515,5.072 -2.181,8.496c2.462,-2.815 4.616,-5.487 6.462,-8.015c1.847,-2.529 3.52,-5.298 5.019,-8.305c0.276,-0.296 0.799,-0.492 1.568,-0.588c0.719,-0.091 1.426,-0.062 2.122,0.086c0.696,0.147 1.198,0.41 1.505,0.789c-0.614,2.584 -0.771,5.083 -0.468,7.499c0.282,2.261 0.828,3.916 1.637,4.963c-0.013,0.315 -0.286,0.949 -0.818,1.903c-0.532,0.955 -1.134,1.866 -1.807,2.733c-1.476,-0.545 -2.831,-1.38 -4.066,-2.504c-1.235,-1.124 -2.202,-2.399 -2.901,-3.825c-2.199,1.998 -4.044,3.914 -5.535,5.745c-1.49,1.832 -2.715,3.813 -3.673,5.943c-0.958,2.131 -1.7,4.534 -2.225,7.21c-0.525,2.676 -0.95,5.836 -1.276,9.479c-0.468,0.007 -1.041,-0.091 -1.717,-0.293c-0.677,-0.202 -1.362,-0.469 -2.054,-0.799c-0.693,-0.331 -1.325,-0.696 -1.896,-1.094c-0.571,-0.398 -0.959,-0.793 -1.164,-1.185Zm42.088,0.631c-2.928,-0.458 -5.214,-1.869 -6.856,-4.233c-1.642,-2.364 -2.376,-5.306 -2.2,-8.824c0.103,-2.069 0.52,-4.201 1.25,-6.394c0.731,-2.194 1.716,-4.31 2.957,-6.349c1.241,-2.038 2.682,-3.95 4.324,-5.735c1.642,-1.785 3.401,-3.305 5.275,-4.559c2.946,-1.98 5.659,-2.907 8.138,-2.783c1.608,0.962 3.143,2.88 4.605,5.754c0.258,0.013 0.491,0.012 0.699,-0.004c0.208,-0.015 0.441,-0.017 0.699,-0.004c2.737,0.137 3.985,2.637 3.742,7.501c-0.162,3.259 -0.846,6.324 -2.05,9.194c-1.204,2.87 -2.808,5.448 -4.812,7.733c-2.004,2.286 -4.35,4.178 -7.039,5.678c-2.689,1.499 -5.6,2.507 -8.732,3.025Zm5.169,-24.248c-0.937,1.146 -1.828,2.398 -2.672,3.756c-0.844,1.358 -1.586,2.735 -2.225,4.129c-0.639,1.394 -1.146,2.743 -1.522,4.047c-0.376,1.304 -0.589,2.473 -0.641,3.508c-0.062,1.241 0.086,2.442 0.442,3.601c0.356,1.159 0.789,1.828 1.298,2.01c2.349,-0.402 4.528,-1.265 6.535,-2.591c2.008,-1.326 3.775,-3.014 5.301,-5.064c1.526,-2.05 2.756,-4.4 3.69,-7.051c0.935,-2.65 1.478,-5.501 1.63,-8.554c0.068,-1.345 0.043,-2.409 -0.073,-3.193c-0.117,-0.784 -0.341,-1.469 -0.674,-2.057c-2.306,0.559 -4.387,1.544 -6.244,2.956c-1.856,1.411 -3.471,2.912 -4.845,4.503Zm-149.848,4.943c0.416,0.549 0.633,0.665 0.94,1.368c0.416,0.949 0.711,1.979 0.886,3.089c0.175,1.111 0.227,2.262 0.155,3.453c-0.071,1.191 -0.242,2.383 -0.51,3.575c-0.269,1.193 -0.661,2.298 -1.175,3.316c-1.315,0.35 -2.624,0.261 -3.929,-0.27c-1.304,-0.53 -2.345,-1.36 -3.121,-2.489c1.056,-2.104 1.742,-4.116 2.059,-6.037c0.121,-0.73 0.325,-0.901 0.322,-1.532l4.373,-4.473Zm-19.618,1.7l-5.09,-1.416l-1.236,1.612l3.421,2.733l2.905,-2.929Zm-28.479,-15.405c-1.238,-0.342 -2.27,-1.007 -3.094,-1.995c-0.824,-0.989 -1.42,-1.883 -1.787,-2.683c-0.454,-0.989 -0.726,-1.89 -0.815,-2.704c-0.188,0.087 -0.438,0.657 -0.751,1.711c-0.313,1.054 -0.62,2.275 -0.921,3.665c-0.301,1.389 -0.601,2.749 -0.9,4.081c-0.299,1.331 -0.529,2.318 -0.689,2.96c-0.309,0.938 -0.647,1.72 -1.015,2.344c-0.368,0.624 -0.705,1.036 -1.012,1.235c-0.752,0.346 -1.599,0.579 -2.54,0.697c-0.942,0.118 -1.886,0.109 -2.831,-0.029c-0.946,-0.138 -1.841,-0.414 -2.686,-0.828c-0.845,-0.414 -1.557,-1.004 -2.136,-1.77c-0.605,-1.317 -1.067,-2.416 -1.386,-3.296c-0.319,-0.879 -0.588,-1.867 -0.807,-2.964c-0.398,-1.983 -0.706,-4.293 -0.921,-6.931c-0.216,-2.637 -0.286,-5.299 -0.211,-7.986c0.075,-2.686 0.344,-5.291 0.808,-7.814c0.463,-2.523 1.197,-4.672 2.203,-6.447c0.423,-0.195 0.932,-0.387 1.529,-0.576c0.596,-0.19 1.23,-0.326 1.904,-0.408c0.674,-0.083 1.34,-0.119 1.999,-0.109c0.659,0.01 1.274,0.14 1.844,0.39c-0.206,0.665 -0.551,2.735 -1.033,6.207c-0.482,3.473 -0.624,8.214 -0.425,14.224c0.003,0.626 0.067,1.508 0.193,2.648c0.125,1.14 0.271,2.327 0.44,3.561c0.168,1.234 0.385,2.417 0.649,3.55c0.264,1.132 0.537,2.005 0.818,2.616c0.172,0.377 0.361,0.632 0.565,0.766c0.204,0.134 0.374,0.227 0.511,0.278c0.575,-0.608 1.111,-1.796 1.608,-3.564c0.496,-1.769 1.102,-4.415 1.818,-7.938c0.167,-0.875 0.373,-1.883 0.618,-3.022c0.245,-1.139 0.475,-2.343 0.689,-3.611c0.214,-1.268 0.377,-2.555 0.489,-3.86c0.112,-1.306 0.117,-2.564 0.018,-3.772c-0.072,-0.651 -0.133,-1.436 -0.185,-2.353c-0.051,-0.917 -0.048,-1.902 0.009,-2.955c0.057,-1.053 0.179,-2.15 0.367,-3.291c0.187,-1.141 0.507,-2.272 0.959,-3.393c0.611,-0.282 1.301,-0.515 2.07,-0.698c0.77,-0.184 1.52,-0.316 2.252,-0.397c0.731,-0.08 1.391,-0.099 1.98,-0.057c0.588,0.042 1.065,0.15 1.429,0.324c0.106,2.461 0.107,4.941 0.003,7.441c-0.104,2.499 -0.153,4.932 -0.149,7.296c0.005,2.364 0.145,4.652 0.421,6.863c0.275,2.211 0.835,4.234 1.678,6.069c0.454,0.988 0.931,1.809 1.43,2.463c0.499,0.653 0.957,1.184 1.372,1.591c0.414,0.408 0.78,0.738 1.095,0.992c0.316,0.253 0.528,0.498 0.636,0.733c0.022,0.047 0.007,0.139 -0.044,0.277c-0.025,0.069 -0.061,0.114 -0.108,0.135c-0.329,0.152 -0.784,0.276 -1.366,0.373c-0.581,0.097 -1.248,0.163 -2.001,0.196c-0.753,0.034 -1.523,0.032 -2.308,-0.005c-0.785,-0.037 -1.546,-0.114 -2.283,-0.23Zm14.176,-10.179c-0.176,-0.431 -0.361,-0.985 -0.554,-1.661c-0.193,-0.677 -0.415,-1.594 -0.665,-2.751c-0.249,-1.157 -0.533,-2.566 -0.85,-4.227c-0.316,-1.662 -0.677,-3.669 -1.081,-6.023c-0.1,-0.518 -0.199,-1.373 -0.295,-2.565c-0.097,-1.192 -0.111,-2.489 -0.041,-3.889c0.07,-1.4 0.274,-2.814 0.612,-4.24c0.338,-1.427 0.95,-2.63 1.834,-3.609c0.892,-0.142 2.169,-0.093 3.833,0.148c1.663,0.24 3.257,0.859 4.783,1.856c-0.59,1.698 -1.001,3.323 -1.233,4.873c-0.232,1.551 -0.372,3.12 -0.421,4.708c-0.048,1.588 -0.03,3.203 0.056,4.848c0.086,1.644 0.142,3.385 0.167,5.222c0.023,1.558 0.109,3.132 0.257,4.723c0.148,1.591 0.414,2.923 0.798,3.997c0.353,0.863 0.591,1.479 0.714,1.848c0.123,0.37 0.065,0.604 -0.174,0.702c-0.192,0.078 -0.623,0.116 -1.295,0.112c-0.673,-0.004 -1.411,-0.135 -2.215,-0.392c-0.804,-0.258 -1.602,-0.672 -2.394,-1.242c-0.792,-0.571 -1.404,-1.383 -1.836,-2.438Zm41.2,-1.07c21.727,-6.911 42.953,-11.473 65.133,-15.909c27.065,-5.413 54.543,-10.266 82.279,-9.173c10.232,0.403 20.668,1.683 29.72,6.163c0,0 2.428,1.967 2.428,1.967l1.432,2.67l0.328,3.021c-0.295,1.007 -0.397,2.093 -0.885,3.022c0,0 -1.987,2.441 -1.987,2.441c-2.651,1.428 -2.688,1.441 -5.679,1.767l-2.989,-0.89c-10.17,-5.453 -22.816,-6.25 -34.418,-6.527c-22.431,-0.536 -44.852,2.048 -67.042,5.344c-23.621,3.508 -46.279,7.932 -68.964,14.379l0.644,-8.275Zm9.509,-17.787c-0.097,-0.456 -0.181,-1.034 -0.251,-1.734c-0.07,-0.7 -0.126,-1.642 -0.167,-2.825c-0.041,-1.183 -0.07,-2.62 -0.087,-4.311c-0.018,-1.692 -0.017,-3.731 0.002,-6.119c-0.007,-0.529 0.047,-1.388 0.163,-2.578c0.116,-1.19 0.333,-2.468 0.649,-3.834c0.317,-1.366 0.768,-2.72 1.353,-4.064c0.586,-1.344 1.401,-2.419 2.445,-3.226c0.903,0.019 2.151,0.294 3.745,0.827c1.594,0.532 3.054,1.425 4.379,2.677c-0.882,1.566 -1.574,3.092 -2.077,4.577c-0.502,1.485 -0.918,3.004 -1.247,4.558c-0.329,1.554 -0.597,3.147 -0.804,4.781c-0.206,1.633 -0.46,3.356 -0.76,5.169c-0.254,1.537 -0.448,3.102 -0.584,4.694c-0.136,1.591 -0.111,2.95 0.077,4.075c0.194,0.912 0.32,1.561 0.375,1.946c0.056,0.385 -0.042,0.605 -0.295,0.659c-0.202,0.044 -0.634,0.004 -1.295,-0.12c-0.661,-0.123 -1.364,-0.383 -2.109,-0.779c-0.746,-0.397 -1.458,-0.946 -2.137,-1.648c-0.678,-0.702 -1.137,-1.611 -1.375,-2.725Zm-49.771,-17.974c-0.118,-0.288 -0.222,-0.749 -0.314,-1.383c-0.337,-0.141 -0.688,-0.417 -1.052,-0.828c-0.363,-0.41 -0.623,-0.807 -0.78,-1.191c-0.177,-0.431 -0.357,-1.043 -0.542,-1.835c-0.184,-0.792 -0.357,-1.659 -0.519,-2.6c-0.162,-0.941 -0.29,-1.938 -0.386,-2.991c-0.095,-1.052 -0.156,-2.021 -0.183,-2.906c0.574,-0.235 1.344,-0.369 2.308,-0.402c0.965,-0.032 1.981,0.026 3.048,0.176c1.067,0.15 2.082,0.377 3.045,0.681c0.963,0.304 1.744,0.641 2.342,1.012c-0.31,0.743 -0.705,1.759 -1.184,3.047c-0.478,1.288 -0.914,2.615 -1.305,3.979c-0.392,1.365 -0.736,2.64 -1.033,3.826c-0.297,1.186 -0.463,2.009 -0.498,2.472c-0.613,0.139 -1.218,0.094 -1.816,-0.136c-0.597,-0.231 -0.974,-0.538 -1.131,-0.921Zm-80.572,2.736c-0.006,-0.006 0.028,-0.013 0.205,-0.008c-0.646,-0.133 -1.694,-0.382 -1.412,-0.28c0,0 -0.01,0.089 0.786,0.216c0.252,0.04 0.37,0.062 0.421,0.072l0.012,0.003l0.009,0.002l0.006,0.002l0.004,0.001l0.002,0.001l0,0l0,0l0,0l0,0l0,0l0,0l-0.001,0l0.001,0l0,0l0,0l0,0l0,0l0,0l0,0l0,0l0,0l0,0l0,0l0,0l0,0l0,0l0,0l0,0c0,0 0,-0.001 -0.002,-0.001l0,0l0,0l-0.002,-0.001l-0.002,0l0,0l0,-0.001l-0.003,0l-0.003,-0.001l0,0l-0.001,0l-0.003,-0.001l-0.005,-0.001l0,0l0,0l-0.003,-0.001l-0.009,-0.002Zm0,0.001l0,-0.001c0.011,0.013 0.193,0.026 -0.421,-0.072l0.421,0.073l0.005,0.002l0.009,0.003l0.009,0.002l0.009,0.001l0,0l-0.001,0l-0.001,0l-0.001,0l-0.002,0l-0.002,-0.001l-0.002,0l-0.001,0l-0.005,-0.001l-0.001,0l-0.003,-0.001l-0.001,-0.001l-0.003,0l-0.002,-0.001l0,0l-0.001,0l-0.001,-0.001l-0.001,0l-0.001,0l0,-0.001l-0.001,0l-0.001,0l0,-0.001l-0.001,0Zm-2.42,-1.072c-0.019,-0.009 -0.043,-0.02 -0.043,-0.02c0,0 0.554,0.434 0.04,0.004c0,0 -0.141,-0.15 0.011,0.025l-0.008,-0.009c0.021,0.011 0.036,0.019 0.008,0.009l-0.008,-0.009Zm140.209,-19.772c-0.064,-0.304 -0.086,-0.776 -0.064,-1.416c-0.307,-0.199 -0.603,-0.533 -0.888,-1.002c-0.285,-0.468 -0.471,-0.905 -0.557,-1.311c-0.098,-0.456 -0.167,-1.09 -0.208,-1.902c-0.042,-0.812 -0.058,-1.696 -0.051,-2.651c0.008,-0.955 0.058,-1.959 0.15,-3.012c0.093,-1.053 0.204,-2.017 0.335,-2.892c0.606,-0.13 1.387,-0.125 2.343,0.014c0.955,0.14 1.944,0.378 2.968,0.715c1.023,0.337 1.982,0.741 2.876,1.211c0.893,0.471 1.602,0.942 2.125,1.412c-0.437,0.677 -1.005,1.606 -1.704,2.789c-0.7,1.183 -1.363,2.411 -1.99,3.684c-0.627,1.273 -1.192,2.467 -1.694,3.581c-0.502,1.114 -0.811,1.896 -0.927,2.344c-0.629,0.029 -1.216,-0.123 -1.763,-0.456c-0.547,-0.333 -0.864,-0.702 -0.951,-1.108Zm-162.916,171.543c0.016,0.007 -0.137,-0.058 0.095,0.039c0,0 0.749,0.219 0.749,0.219c0.099,0.019 0.134,0.028 0.14,0.032c0.047,0.005 0.123,0.014 0.24,0.028c5.429,0.614 10.58,-4.382 14.492,-7.789c9.467,-8.244 17.154,-18.516 22.258,-29.967c3.937,-8.833 6.257,-18.25 7.329,-27.816c0,0 -2.87,1.713 -5.578,3.391c-9.936,6.159 -19.832,13.001 -27.735,21.233c-7.695,8.015 -15.349,16.814 -16.71,28.158c-0.556,4.636 0.751,10.11 4.145,12.178c0.192,0.117 0.026,0.027 0.24,0.136l0.048,0.024l0.287,0.134Z" style="fill-rule:nonzero;"/></g><text x="16.371px" y="346.091px" style="font-family:'Poppins-Bold', 'Poppins';font-weight:700;font-size:24px;">virtual.employee@gmail.com</text></g></svg>